<?xml version="1.0" encoding="UTF-8"?>
<svg id="Layer_1" data-name="Layer 1" xmlns="http://www.w3.org/2000/svg" viewBox="0 0 2000 2000">
  <defs>
    <style>
      .cls-1 {
        fill: #0d6efd;
      }

      .cls-1, .cls-2 {
        stroke-width: 0px;
      }

      .cls-2 {
        fill: #dc3545;
      }
    </style>
  </defs>
  <path class="cls-2" d="m1101.74,117.12h167.75c13.61,0,24.65,11.04,24.65,24.65v973.33c0,19.59,21.74,31.35,38.14,20.63l260.15-170.04c16.39-10.72,38.14,1.05,38.14,20.63v239.95c0,8.32-4.19,16.07-11.15,20.62l-520.18,340.5c-16.39,10.73-38.15-1.03-38.15-20.62V157.78c0-22.46,18.2-40.66,40.66-40.66Z"/>
  <path class="cls-1" d="m898.26,1882.88h-167.75c-13.61,0-24.65-11.04-24.65-24.65v-973.33c0-19.59-21.74-31.35-38.14-20.63l-260.15,170.04c-16.39,10.72-38.14-1.05-38.14-20.63v-239.95c0-8.32,4.19-16.07,11.15-20.62l520.18-340.5c16.39-10.73,38.15,1.03,38.15,20.62v1409c0,22.46-18.2,40.66-40.66,40.66Z"/>
</svg>